<svg xmlns="http://www.w3.org/2000/svg" viewBox="0 0 920 220" role="img" aria-labelledby="title">
    <title id="title">TripControl</title>
    <defs>
        <linearGradient id="navy" x1="72" y1="44" x2="248" y2="200" gradientUnits="userSpaceOnUse">
            <stop offset="0" stop-color="#062543"/>
            <stop offset="1" stop-color="#064760"/>
        </linearGradient>
        <linearGradient id="teal" x1="104" y1="104" x2="274" y2="204" gradientUnits="userSpaceOnUse">
            <stop offset="0" stop-color="#60ded6"/>
            <stop offset="1" stop-color="#07978f"/>
        </linearGradient>
        <linearGradient id="word" x1="318" y1="82" x2="820" y2="82" gradientUnits="userSpaceOnUse">
            <stop offset="0" stop-color="#062543"/>
            <stop offset="0.46" stop-color="#082b4a"/>
            <stop offset="0.47" stop-color="#0b9b99"/>
            <stop offset="1" stop-color="#16a99e"/>
        </linearGradient>
        <filter id="soft-shadow" x="-20%" y="-20%" width="140%" height="140%">
            <feDropShadow dx="0" dy="10" stdDeviation="11" flood-color="#05233d" flood-opacity="0.14"/>
        </filter>
    </defs>
    <g filter="url(#soft-shadow)">
        <path d="M109 52h129a30 30 0 0 1 30 30v121H74V82a30 30 0 0 1 30-30h5Z" fill="url(#navy)"/>
        <path d="M125 52V31a18 18 0 0 1 18-18h56a18 18 0 0 1 18 18v21h-20V33h-52v19h-20Z" fill="#073557"/>
        <path d="m74 171 58-58 31 25 51-65 54 61v69H74v-32Z" fill="url(#teal)"/>
        <path d="M84 202c44-55 84-82 122-85-38 18-64 45-81 85H84Z" fill="#fff"/>
        <path d="m97 88 47 15 35-25c7-5 17 4 10 11l-27 27 13 42-17 8-22-34-40 9-8-15 32-16-31-17 8-5Z" fill="#fff"/>
        <path d="M243 107c39 0 71 32 71 71 0 55-71 99-71 99s-71-44-71-99c0-39 32-71 71-71Z" fill="#fff"/>
        <path d="M243 127c28 0 51 23 51 51 0 32-33 64-51 77-18-13-51-45-51-77 0-28 23-51 51-51Z" fill="#079d9b"/>
        <path d="m218 176 18 18 35-38 16 16-51 55-34-35 16-16Z" fill="#fff"/>
    </g>
    <text x="352" y="130" fill="url(#word)" font-family="Arial, Helvetica, sans-serif" font-size="86" font-weight="800" letter-spacing="-1">TripControl</text>
    <path d="M350 154h188M575 154h265" fill="none" stroke="#062543" stroke-width="2" stroke-linecap="round"/>
    <text x="378" y="188" fill="#062543" font-family="Arial, Helvetica, sans-serif" font-size="22" font-weight="700" letter-spacing="7">DEINE REISEN. DEIN ÜBERBLICK. DEINE KONTROLLE.</text>
</svg>
